<?xml version="1.0" encoding="UTF-8"?>
<svg version="1.1" xmlns="http://www.w3.org/2000/svg" width="100" height="100">
<path d="M0 0 C2.23791562 -0.00655213 4.471368 -0.06099366 6.70849609 -0.11791992 C8.13686639 -0.1267249 9.56525769 -0.13267717 10.99365234 -0.13549805 C12.28899902 -0.14782471 13.5843457 -0.16015137 14.91894531 -0.17285156 C19.71950083 0.83898704 20.68596734 2.52954086 23.37646484 6.5559082 C23.87146484 8.0409082 23.87146484 8.0409082 24.37646484 9.5559082 C25.18470703 9.63067383 25.99294922 9.70543945 26.82568359 9.7824707 C36.64186601 10.99025189 36.64186601 10.99025189 39.56396484 14.5559082 C41.84544806 18.33215629 42.50583987 20.10094273 42.5534668 24.46118164 C42.57271965 25.99352448 42.57271965 25.99352448 42.59236145 27.55682373 C42.59974838 28.66511536 42.60713531 29.77340698 42.61474609 30.9152832 C42.62281784 32.0524176 42.63088959 33.189552 42.63920593 34.36114502 C42.65305582 36.77207917 42.66377391 39.18303301 42.67163086 41.59399414 C42.68882981 45.276991 42.73270775 48.95908723 42.77685547 52.6418457 C42.78698338 54.98298493 42.79549917 57.32413179 42.80224609 59.6652832 C42.81975418 60.76547791 42.83726227 61.86567261 42.8553009 62.99920654 C42.83836133 68.9872434 42.66339057 72.97183255 38.37646484 77.5559082 C34.18113816 80.74225458 30.47485109 80.99100144 25.37670898 80.95996094 C24.58582382 80.96682419 23.79493866 80.97368744 22.98008728 80.98075867 C20.37374766 80.99901375 17.76801074 80.99519107 15.16162109 80.98950195 C13.3446788 80.99406445 11.52773823 80.99937022 9.71080017 81.00538635 C5.90535465 81.01431496 2.10011901 81.01189727 -1.70532227 81.00195312 C-6.57561853 80.9904649 -11.44518959 81.0106738 -16.31539059 81.03987026 C-20.06698692 81.05823997 -23.81840972 81.05793825 -27.57003975 81.05223274 C-29.365342 81.05207962 -31.16065607 81.05811682 -32.95591545 81.07052422 C-35.46919771 81.08544693 -37.98114356 81.0747486 -40.49438477 81.05761719 C-41.23171844 81.06728516 -41.96905212 81.07695313 -42.72872925 81.08691406 C-47.83327854 81.0142656 -50.71193507 79.79482508 -54.62353516 76.5559082 C-57.52984249 73.53373217 -58.0030727 71.48145674 -58.02758789 67.33178711 C-58.04027206 66.29035553 -58.05295624 65.24892395 -58.06602478 64.17593384 C-58.06308914 63.056091 -58.0601535 61.93624817 -58.05712891 60.7824707 C-58.06237076 59.62597015 -58.06761261 58.4694696 -58.07301331 57.27792358 C-58.07943595 54.83185631 -58.07809342 52.38575816 -58.06958008 49.93969727 C-58.06108272 46.20183066 -58.08981047 42.46549833 -58.12158203 38.7277832 C-58.12319446 36.35017949 -58.12261571 33.97257308 -58.11962891 31.5949707 C-58.13086288 30.47917633 -58.14209686 29.36338196 -58.15367126 28.21377563 C-58.09841571 22.04241559 -57.84992773 18.20189807 -53.62353516 13.5559082 C-51.96029115 12.55022578 -50.29417263 11.54926021 -48.62353516 10.5559082 C-48.29353516 9.2359082 -47.96353516 7.9159082 -47.62353516 6.5559082 C-41.68353516 6.5559082 -35.74353516 6.5559082 -29.62353516 6.5559082 C-29.62353516 7.8759082 -29.62353516 9.1959082 -29.62353516 10.5559082 C-26.19972297 10.54306088 -22.95199098 10.39610094 -19.62353516 9.5559082 C-17.56460363 6.77178095 -17.56460363 6.77178095 -16.62353516 3.5559082 C-13.13603357 -1.61764933 -5.58915671 -0.00183652 0 0 Z M-13.62353516 8.5559082 C-14.28353516 10.2059082 -14.94353516 11.8559082 -15.62353516 13.5559082 C-21.56353516 13.8859082 -27.50353516 14.2159082 -33.62353516 14.5559082 C-33.62353516 13.2359082 -33.62353516 11.9159082 -33.62353516 10.5559082 C-36.92353516 10.5559082 -40.22353516 10.5559082 -43.62353516 10.5559082 C-43.95353516 11.8759082 -44.28353516 13.1959082 -44.62353516 14.5559082 C-45.57228516 14.9890332 -46.52103516 15.4221582 -47.49853516 15.8684082 C-50.89555862 17.70280087 -51.66051349 18.94242245 -53.03887939 22.46191406 C-54.12006741 26.33428052 -54.05016916 30.18495339 -54.02197266 34.1809082 C-54.02484283 35.08663574 -54.02771301 35.99236328 -54.03067017 36.92553711 C-54.03270256 38.83163075 -54.02723071 40.73774564 -54.01464844 42.64379883 C-53.99858294 45.54727186 -54.01452523 48.44935303 -54.03369141 51.3527832 C-54.03170883 53.21216125 -54.02786485 55.07153844 -54.02197266 56.9309082 C-54.02804535 57.79151855 -54.03411804 58.65212891 -54.04037476 59.53881836 C-53.97800858 64.93193201 -53.49764552 68.91858946 -50.62353516 73.5559082 C-45.68392564 76.1611521 -41.9805707 76.93323768 -36.33056641 76.9440918 C-35.63853119 76.94934875 -34.94649597 76.95460571 -34.23348999 76.96002197 C-31.96743563 76.97312382 -29.70209548 76.96451948 -27.43603516 76.9543457 C-25.84855007 76.95636927 -24.2610659 76.95928307 -22.67358398 76.96304321 C-19.35505273 76.96745326 -16.03676459 76.96107832 -12.71826172 76.94702148 C-8.47820175 76.92993021 -4.23871159 76.93977851 0.00132751 76.95773888 C3.27685795 76.96861257 6.55225471 76.965114 9.82778931 76.9573555 C11.39059518 76.95536339 12.95341344 76.9577778 14.51620483 76.96479416 C16.70562595 76.97246819 18.89414188 76.96072295 21.08349609 76.9440918 C22.32591064 76.94170502 23.5683252 76.93931824 24.84838867 76.93685913 C29.04327084 76.48390852 31.6504583 75.52107484 35.37646484 73.5559082 C38.71733311 68.16548507 38.8188189 63.1546775 38.77490234 56.9309082 C38.77777252 56.02518066 38.7806427 55.11945312 38.78359985 54.1862793 C38.78563224 52.28018566 38.7801604 50.37407077 38.76757812 48.46801758 C38.75151263 45.56454455 38.76745492 42.66246338 38.78662109 39.7590332 C38.78463852 37.89965516 38.78079454 36.04027797 38.77490234 34.1809082 C38.78097504 33.32029785 38.78704773 32.4596875 38.79330444 31.57299805 C38.73083427 26.1708917 38.01628443 22.31050889 35.37646484 17.5559082 C31.58936694 15.32820355 28.43314422 14.5051401 24.12646484 14.2434082 C22.27021484 13.9030957 22.27021484 13.9030957 20.37646484 13.5559082 C18.62646484 10.6809082 18.62646484 10.6809082 17.37646484 7.5559082 C12.93436846 3.35482244 8.23151451 4.0770597 2.43896484 4.1184082 C1.44960938 4.09842773 0.46025391 4.07844727 -0.55908203 4.05786133 C-6.08986942 4.06158075 -9.82809233 4.07038486 -13.62353516 8.5559082 Z " fill="#000000" transform="translate(57.62353515625,7.444091796875)"/>
<path d="M0 0 C5.25270679 3.84037678 9.71819611 9.06525446 11.12109375 15.55078125 C12.11204671 24.57946379 11.5816991 32.08199359 6.12109375 39.55078125 C1.3614144 44.87574318 -3.96125952 48.12079563 -11.08203125 48.90234375 C-20.05640794 49.27141985 -26.91060267 47.99166407 -33.71875 41.90625 C-40.22993035 34.85379794 -41.47502111 28.43472089 -41.21484375 18.98828125 C-40.37558079 10.4004742 -36.67604139 5.76205668 -30.29296875 0.1796875 C-21.4461955 -5.78973717 -9.01672901 -5.25605714 0 0 Z M-30.6640625 7.4921875 C-35.95747206 14.28727353 -36.62627748 20.02641659 -35.87890625 28.55078125 C-34.13221698 35.25940309 -29.70158727 39.09543256 -23.87890625 42.55078125 C-17.80347059 44.57592647 -10.42655094 44.65124614 -4.50390625 42.05078125 C0.63947712 39.05494835 4.2564782 34.1446279 6.12109375 28.55078125 C6.78216328 21.23566763 6.88949082 14.48155767 2.12109375 8.55078125 C-4.22092946 2.71918245 -9.23452199 1.16753248 -17.8046875 1.28125 C-23.2716106 1.76056092 -26.94460455 3.44717524 -30.6640625 7.4921875 Z " fill="#000000" transform="translate(74.87890625,29.44921875)"/>
<path d="M0 0 C3 0.125 3 0.125 4 1.125 C4.125 4.125 4.125 4.125 4 7.125 C3 8.125 3 8.125 0 8.25 C-3 8.125 -3 8.125 -4 7.125 C-4.125 4.125 -4.125 4.125 -4 1.125 C-3 0.125 -3 0.125 0 0 Z " fill="#000000" transform="translate(14,27.875)"/>
</svg>
