<?xml version="1.0" encoding="UTF-8"?>
<svg version="1.1" xmlns="http://www.w3.org/2000/svg" width="96" height="96">
<path d="M0 0 C23.76 0 47.52 0 72 0 C72 6.7446188 72 6.7446188 68.97265625 10.3828125 C68.34552734 11.15753906 67.71839844 11.93226562 67.07226562 12.73046875 C66.40904297 13.52066406 65.74582031 14.31085937 65.0625 15.125 C63.75592753 16.70616982 62.45489774 18.29194039 61.16015625 19.8828125 C60.57886963 20.57777832 59.99758301 21.27274414 59.39868164 21.98876953 C57.90721723 24.13341674 57.15396765 25.38884728 57 28 C58.13477676 30.28617233 58.13477676 30.28617233 59.9296875 32.51171875 C60.56003906 33.35154297 61.19039062 34.19136719 61.83984375 35.05664062 C62.51144531 35.92482422 63.18304688 36.79300781 63.875 37.6875 C64.53886719 38.56728516 65.20273438 39.44707031 65.88671875 40.35351562 C68.77315208 44.32084403 68.77315208 44.32084403 72 48 C72 49.98 72 51.96 72 54 C50.22 54 28.44 54 6 54 C6 61.26 6 68.52 6 76 C2 77 2 77 0 76 C0 50.92 0 25.84 0 0 Z M6 6 C6 19.86 6 33.72 6 48 C24.48 48 42.96 48 62 48 C58.18361038 42.27541557 54.74307213 37.3215829 50.3203125 32.23828125 C48.45611198 29.07796498 48.33254883 27.64064276 49 24 C50.89366697 20.83725317 53.1654658 18.03407861 55.5 15.1875 C56.72034701 13.66143196 57.93918517 12.13415567 59.15625 10.60546875 C59.70087891 9.93668701 60.24550781 9.26790527 60.80664062 8.57885742 C62.10049603 7.19689268 62.10049603 7.19689268 62 6 C43.52 6 25.04 6 6 6 Z " fill="#000000" transform="translate(14,12)"/>
</svg>
