<?xml version="1.0" encoding="UTF-8"?>
<svg version="1.1" xmlns="http://www.w3.org/2000/svg" width="100" height="100">
<path d="M0 0 C29.04 0 58.08 0 88 0 C88 25.08 88 50.16 88 76 C58.96 76 29.92 76 0 76 C0 50.92 0 25.84 0 0 Z M4 4 C4 14.56 4 25.12 4 36 C11.92 36 19.84 36 28 36 C28 25.44 28 14.88 28 4 C20.08 4 12.16 4 4 4 Z M32 4 C32 14.56 32 25.12 32 36 C39.92 36 47.84 36 56 36 C56 25.44 56 14.88 56 4 C48.08 4 40.16 4 32 4 Z M60 4 C60 14.56 60 25.12 60 36 C67.92 36 75.84 36 84 36 C84 25.44 84 14.88 84 4 C76.08 4 68.16 4 60 4 Z M4 40 C4 50.56 4 61.12 4 72 C11.92 72 19.84 72 28 72 C28 61.44 28 50.88 28 40 C20.08 40 12.16 40 4 40 Z M32 40 C32 50.56 32 61.12 32 72 C39.92 72 47.84 72 56 72 C56 61.44 56 50.88 56 40 C48.08 40 40.16 40 32 40 Z M60 40 C60 50.56 60 61.12 60 72 C67.92 72 75.84 72 84 72 C84 61.44 84 50.88 84 40 C76.08 40 68.16 40 60 40 Z " fill="#000000" transform="translate(6,12)"/>
</svg>
