<?xml version="1.0" encoding="UTF-8"?>
<svg version="1.1" xmlns="http://www.w3.org/2000/svg" width="100" height="100">
<path d="M0 0 C9.24 0 18.48 0 28 0 C28 11.88 28 23.76 28 36 C18.76 36 9.52 36 0 36 C0 24.12 0 12.24 0 0 Z " fill="#000000" transform="translate(36,52)"/>
<path d="M0 0 C9.24 0 18.48 0 28 0 C28 11.88 28 23.76 28 36 C18.76 36 9.52 36 0 36 C0 24.12 0 12.24 0 0 Z " fill="#000000" transform="translate(36,12)"/>
<path d="M0 0 C8.58 0 17.16 0 26 0 C26 11.88 26 23.76 26 36 C17.42 36 8.84 36 0 36 C0 24.12 0 12.24 0 0 Z " fill="#000000" transform="translate(68,52)"/>
<path d="M0 0 C8.58 0 17.16 0 26 0 C26 11.88 26 23.76 26 36 C17.42 36 8.84 36 0 36 C0 24.12 0 12.24 0 0 Z " fill="#000000" transform="translate(6,52)"/>
<path d="M0 0 C8.58 0 17.16 0 26 0 C26 11.88 26 23.76 26 36 C17.42 36 8.84 36 0 36 C0 24.12 0 12.24 0 0 Z " fill="#000000" transform="translate(68,12)"/>
<path d="M0 0 C8.58 0 17.16 0 26 0 C26 11.88 26 23.76 26 36 C17.42 36 8.84 36 0 36 C0 24.12 0 12.24 0 0 Z " fill="#000000" transform="translate(6,12)"/>
</svg>
