<?xml version="1.0" encoding="UTF-8"?>
<svg version="1.1" xmlns="http://www.w3.org/2000/svg" width="100" height="100">
<path d="M0 0 C0.68835937 0.42539062 1.37671875 0.85078125 2.0859375 1.2890625 C3.41282605 1.96846592 4.74421292 2.63944924 6.0859375 3.2890625 C6.70082031 2.86753906 7.31570312 2.44601563 7.94921875 2.01171875 C8.75746094 1.46386719 9.56570312 0.91601562 10.3984375 0.3515625 C11.59919922 -0.46634766 11.59919922 -0.46634766 12.82421875 -1.30078125 C19.07003923 -5.1949802 27.78024949 -4.69778862 34.76171875 -3.09765625 C41.85060451 -0.31842124 46.35930263 4.88443037 49.75 11.5703125 C52.73068889 19.8674348 52.22557949 29.46492986 49.0859375 37.6640625 C41.25664477 53.89445025 26.65210494 63.21856397 12.14135742 72.88208008 C10.0340004 74.28357499 10.0340004 74.28357499 7.97338867 76.00415039 C7.35052979 76.42817139 6.7276709 76.85219238 6.0859375 77.2890625 C2.12420423 76.33366058 -0.81120056 74.08255011 -4.0390625 71.6640625 C-7.82154073 68.84624315 -11.62671321 66.07649129 -15.4765625 63.3515625 C-24.90879582 56.43548842 -32.30229163 49.67083861 -37.9140625 39.2890625 C-38.275 38.65742187 -38.6359375 38.02578125 -39.0078125 37.375 C-42.43875335 30.16367061 -41.95755739 20.19348849 -40.328125 12.53515625 C-37.99594234 6.38375704 -33.30035257 1.92350095 -27.9140625 -1.7109375 C-18.60937943 -5.59000156 -8.65948799 -5.05383087 0 0 Z M-16.9140625 1.2890625 C-16.9140625 2.2790625 -16.9140625 3.2690625 -16.9140625 4.2890625 C-18.2340625 4.2890625 -19.5540625 4.2890625 -20.9140625 4.2890625 C-20.9140625 3.6290625 -20.9140625 2.9690625 -20.9140625 2.2890625 C-26.6445625 2.94397679 -29.5420479 5.65026728 -33.1640625 9.9765625 C-35.37752036 14.16632203 -35.72359252 17.61461169 -35.9140625 22.2890625 C-35.965625 22.99675781 -36.0171875 23.70445313 -36.0703125 24.43359375 C-36.28792301 29.1756894 -35.34155496 32.24324174 -32.9140625 36.2890625 C-31.5940625 36.2890625 -30.2740625 36.2890625 -28.9140625 36.2890625 C-28.9140625 37.6090625 -28.9140625 38.9290625 -28.9140625 40.2890625 C-29.9040625 40.7840625 -29.9040625 40.7840625 -30.9140625 41.2890625 C-29.5940625 42.6090625 -28.2740625 43.9290625 -26.9140625 45.2890625 C-26.9140625 44.2990625 -26.9140625 43.3090625 -26.9140625 42.2890625 C-25.5940625 42.2890625 -24.2740625 42.2890625 -22.9140625 42.2890625 C-22.9140625 43.6090625 -22.9140625 44.9290625 -22.9140625 46.2890625 C-24.3990625 46.7840625 -24.3990625 46.7840625 -25.9140625 47.2890625 C-23.4390625 49.2690625 -23.4390625 49.2690625 -20.9140625 51.2890625 C-20.9140625 50.2990625 -20.9140625 49.3090625 -20.9140625 48.2890625 C-19.5940625 48.2890625 -18.2740625 48.2890625 -16.9140625 48.2890625 C-16.9140625 49.6090625 -16.9140625 50.9290625 -16.9140625 52.2890625 C-18.3990625 52.7840625 -18.3990625 52.7840625 -19.9140625 53.2890625 C-18.2640625 54.2790625 -16.6140625 55.2690625 -14.9140625 56.2890625 C-14.9140625 55.6290625 -14.9140625 54.9690625 -14.9140625 54.2890625 C-13.5940625 54.2890625 -12.2740625 54.2890625 -10.9140625 54.2890625 C-11.2440625 55.9390625 -11.5740625 57.5890625 -11.9140625 59.2890625 C-9.19857096 61.59578165 -9.19857096 61.59578165 -6.7265625 60.9140625 C-6.1284375 60.7078125 -5.5303125 60.5015625 -4.9140625 60.2890625 C-4.5840625 61.9390625 -4.2540625 63.5890625 -3.9140625 65.2890625 C-3.1303125 65.3715625 -2.3465625 65.4540625 -1.5390625 65.5390625 C1.0859375 66.2890625 1.0859375 66.2890625 2.3984375 68.3515625 C2.73875 69.310625 2.73875 69.310625 3.0859375 70.2890625 C5.5609375 69.7940625 5.5609375 69.7940625 8.0859375 69.2890625 C8.5809375 67.8040625 8.5809375 67.8040625 9.0859375 66.2890625 C11.5609375 65.7940625 11.5609375 65.7940625 14.0859375 65.2890625 C14.4159375 63.6390625 14.7459375 61.9890625 15.0859375 60.2890625 C16.7359375 60.6190625 18.3859375 60.9490625 20.0859375 61.2890625 C22.39265665 58.57357096 22.39265665 58.57357096 21.7109375 56.1015625 C21.5046875 55.5034375 21.2984375 54.9053125 21.0859375 54.2890625 C22.4059375 54.2890625 23.7259375 54.2890625 25.0859375 54.2890625 C25.4159375 54.9490625 25.7459375 55.6090625 26.0859375 56.2890625 C27.4059375 54.9690625 28.7259375 53.6490625 30.0859375 52.2890625 C29.0959375 52.2890625 28.1059375 52.2890625 27.0859375 52.2890625 C27.0859375 50.9690625 27.0859375 49.6490625 27.0859375 48.2890625 C28.4059375 48.2890625 29.7259375 48.2890625 31.0859375 48.2890625 C31.4159375 49.2790625 31.7459375 50.2690625 32.0859375 51.2890625 C33.4059375 49.6390625 34.7259375 47.9890625 36.0859375 46.2890625 C35.0959375 46.2890625 34.1059375 46.2890625 33.0859375 46.2890625 C33.0859375 44.9690625 33.0859375 43.6490625 33.0859375 42.2890625 C34.4059375 42.2890625 35.7259375 42.2890625 37.0859375 42.2890625 C37.4159375 43.2790625 37.7459375 44.2690625 38.0859375 45.2890625 C39.0759375 43.6390625 40.0659375 41.9890625 41.0859375 40.2890625 C40.4259375 40.2890625 39.7659375 40.2890625 39.0859375 40.2890625 C39.0859375 38.9690625 39.0859375 37.6490625 39.0859375 36.2890625 C40.7359375 35.9590625 42.3859375 35.6290625 44.0859375 35.2890625 C44.0859375 33.3090625 44.0859375 31.3290625 44.0859375 29.2890625 C44.7459375 29.2890625 45.4059375 29.2890625 46.0859375 29.2890625 C46.76925494 19.29294527 46.76925494 19.29294527 43.0859375 10.2890625 C42.4671875 9.4021875 41.8484375 8.5153125 41.2109375 7.6015625 C38.98554454 5.17981133 37.03600551 3.72627512 34.0859375 2.2890625 C33.0959375 2.2890625 32.1059375 2.2890625 31.0859375 2.2890625 C31.0859375 2.9490625 31.0859375 3.6090625 31.0859375 4.2890625 C29.7659375 4.2890625 28.4459375 4.2890625 27.0859375 4.2890625 C27.0859375 3.2990625 27.0859375 2.3090625 27.0859375 1.2890625 C24.7759375 1.2890625 22.4659375 1.2890625 20.0859375 1.2890625 C20.0859375 2.6090625 20.0859375 3.9290625 20.0859375 5.2890625 C18.7659375 5.2890625 17.4459375 5.2890625 16.0859375 5.2890625 C16.0859375 4.6290625 16.0859375 3.9690625 16.0859375 3.2890625 C11.77273682 5.04629241 8.1828291 8.0952793 6.0859375 12.2890625 C6.48532517 14.38727465 6.48532517 14.38727465 7.0859375 16.2890625 C5.7659375 16.2890625 4.4459375 16.2890625 3.0859375 16.2890625 C3.4159375 14.6390625 3.7459375 12.9890625 4.0859375 11.2890625 C1.37044596 8.98234335 1.37044596 8.98234335 -1.1015625 9.6640625 C-1.6996875 9.8703125 -2.2978125 10.0765625 -2.9140625 10.2890625 C-2.5840625 8.6390625 -2.2540625 6.9890625 -1.9140625 5.2890625 C-4.62955404 2.98234335 -4.62955404 2.98234335 -7.1015625 3.6640625 C-7.99875 3.9734375 -7.99875 3.9734375 -8.9140625 4.2890625 C-8.9140625 3.2990625 -8.9140625 2.3090625 -8.9140625 1.2890625 C-11.5540625 1.2890625 -14.1940625 1.2890625 -16.9140625 1.2890625 Z " fill="#000000" transform="translate(44.9140625,17.7109375)"/>
<path d="M0 0 C1.32 0 2.64 0 4 0 C4 1.32 4 2.64 4 4 C2.68 4 1.36 4 0 4 C0 2.68 0 1.36 0 0 Z " fill="#000000" transform="translate(48,78)"/>
<path d="M0 0 C1.32 0 2.64 0 4 0 C4 1.32 4 2.64 4 4 C2.68 4 1.36 4 0 4 C0 2.68 0 1.36 0 0 Z " fill="#000000" transform="translate(54,72)"/>
<path d="M0 0 C1.32 0 2.64 0 4 0 C4 1.32 4 2.64 4 4 C2.68 4 1.36 4 0 4 C0 2.68 0 1.36 0 0 Z " fill="#000000" transform="translate(42,72)"/>
<path d="M0 0 C1.32 0 2.64 0 4 0 C4 1.32 4 2.64 4 4 C2.68 4 1.36 4 0 4 C0 2.68 0 1.36 0 0 Z " fill="#000000" transform="translate(60,66)"/>
<path d="M0 0 C1.32 0 2.64 0 4 0 C4 1.32 4 2.64 4 4 C2.68 4 1.36 4 0 4 C0 2.68 0 1.36 0 0 Z " fill="#000000" transform="translate(48,66)"/>
<path d="M0 0 C1.32 0 2.64 0 4 0 C4 1.32 4 2.64 4 4 C2.68 4 1.36 4 0 4 C0 2.68 0 1.36 0 0 Z " fill="#000000" transform="translate(36,66)"/>
<path d="M0 0 C1.32 0 2.64 0 4 0 C4 1.32 4 2.64 4 4 C2.68 4 1.36 4 0 4 C0 2.68 0 1.36 0 0 Z " fill="#000000" transform="translate(66,60)"/>
<path d="M0 0 C1.32 0 2.64 0 4 0 C4 1.32 4 2.64 4 4 C2.68 4 1.36 4 0 4 C0 2.68 0 1.36 0 0 Z " fill="#000000" transform="translate(54,60)"/>
<path d="M0 0 C1.32 0 2.64 0 4 0 C4 1.32 4 2.64 4 4 C2.68 4 1.36 4 0 4 C0 2.68 0 1.36 0 0 Z " fill="#000000" transform="translate(42,60)"/>
<path d="M0 0 C1.32 0 2.64 0 4 0 C4 1.32 4 2.64 4 4 C2.68 4 1.36 4 0 4 C0 2.68 0 1.36 0 0 Z " fill="#000000" transform="translate(30,60)"/>
<path d="M0 0 C1.32 0 2.64 0 4 0 C4 1.32 4 2.64 4 4 C2.68 4 1.36 4 0 4 C0 2.68 0 1.36 0 0 Z " fill="#000000" transform="translate(72,54)"/>
<path d="M0 0 C1.32 0 2.64 0 4 0 C4 1.32 4 2.64 4 4 C2.68 4 1.36 4 0 4 C0 2.68 0 1.36 0 0 Z " fill="#000000" transform="translate(60,54)"/>
<path d="M0 0 C1.32 0 2.64 0 4 0 C4 1.32 4 2.64 4 4 C2.68 4 1.36 4 0 4 C0 2.68 0 1.36 0 0 Z " fill="#000000" transform="translate(48,54)"/>
<path d="M0 0 C1.32 0 2.64 0 4 0 C4 1.32 4 2.64 4 4 C2.68 4 1.36 4 0 4 C0 2.68 0 1.36 0 0 Z " fill="#000000" transform="translate(36,54)"/>
<path d="M0 0 C1.32 0 2.64 0 4 0 C4 1.32 4 2.64 4 4 C2.68 4 1.36 4 0 4 C0 2.68 0 1.36 0 0 Z " fill="#000000" transform="translate(24,54)"/>
<path d="M0 0 C1.32 0 2.64 0 4 0 C4 1.32 4 2.64 4 4 C2.68 4 1.36 4 0 4 C0 2.68 0 1.36 0 0 Z " fill="#000000" transform="translate(78,48)"/>
<path d="M0 0 C1.32 0 2.64 0 4 0 C4 1.32 4 2.64 4 4 C2.68 4 1.36 4 0 4 C0 2.68 0 1.36 0 0 Z " fill="#000000" transform="translate(66,48)"/>
<path d="M0 0 C1.32 0 2.64 0 4 0 C4 1.32 4 2.64 4 4 C2.68 4 1.36 4 0 4 C0 2.68 0 1.36 0 0 Z " fill="#000000" transform="translate(54,48)"/>
<path d="M0 0 C1.32 0 2.64 0 4 0 C4 1.32 4 2.64 4 4 C2.68 4 1.36 4 0 4 C0 2.68 0 1.36 0 0 Z " fill="#000000" transform="translate(42,48)"/>
<path d="M0 0 C1.32 0 2.64 0 4 0 C4 1.32 4 2.64 4 4 C2.68 4 1.36 4 0 4 C0 2.68 0 1.36 0 0 Z " fill="#000000" transform="translate(30,48)"/>
<path d="M0 0 C1.32 0 2.64 0 4 0 C4 1.32 4 2.64 4 4 C2.68 4 1.36 4 0 4 C0 2.68 0 1.36 0 0 Z " fill="#000000" transform="translate(18,48)"/>
<path d="M0 0 C1.32 0 2.64 0 4 0 C4 1.32 4 2.64 4 4 C2.68 4 1.36 4 0 4 C0 2.68 0 1.36 0 0 Z " fill="#000000" transform="translate(84,42)"/>
<path d="M0 0 C1.32 0 2.64 0 4 0 C4 1.32 4 2.64 4 4 C2.68 4 1.36 4 0 4 C0 2.68 0 1.36 0 0 Z " fill="#000000" transform="translate(72,42)"/>
<path d="M0 0 C1.32 0 2.64 0 4 0 C4 1.32 4 2.64 4 4 C2.68 4 1.36 4 0 4 C0 2.68 0 1.36 0 0 Z " fill="#000000" transform="translate(60,42)"/>
<path d="M0 0 C1.32 0 2.64 0 4 0 C4 1.32 4 2.64 4 4 C2.68 4 1.36 4 0 4 C0 2.68 0 1.36 0 0 Z " fill="#000000" transform="translate(48,42)"/>
<path d="M0 0 C1.32 0 2.64 0 4 0 C4 1.32 4 2.64 4 4 C2.68 4 1.36 4 0 4 C0 2.68 0 1.36 0 0 Z " fill="#000000" transform="translate(36,42)"/>
<path d="M0 0 C1.32 0 2.64 0 4 0 C4 1.32 4 2.64 4 4 C2.68 4 1.36 4 0 4 C0 2.68 0 1.36 0 0 Z " fill="#000000" transform="translate(24,42)"/>
<path d="M0 0 C1.32 0 2.64 0 4 0 C4 1.32 4 2.64 4 4 C2.68 4 1.36 4 0 4 C0 2.68 0 1.36 0 0 Z " fill="#000000" transform="translate(12,42)"/>
<path d="M0 0 C1.32 0 2.64 0 4 0 C4 1.32 4 2.64 4 4 C2.68 4 1.36 4 0 4 C0 2.68 0 1.36 0 0 Z " fill="#000000" transform="translate(78,36)"/>
<path d="M0 0 C1.32 0 2.64 0 4 0 C4 1.32 4 2.64 4 4 C2.68 4 1.36 4 0 4 C0 2.68 0 1.36 0 0 Z " fill="#000000" transform="translate(66,36)"/>
<path d="M0 0 C1.32 0 2.64 0 4 0 C4 1.32 4 2.64 4 4 C2.68 4 1.36 4 0 4 C0 2.68 0 1.36 0 0 Z " fill="#000000" transform="translate(54,36)"/>
<path d="M0 0 C1.32 0 2.64 0 4 0 C4 1.32 4 2.64 4 4 C2.68 4 1.36 4 0 4 C0 2.68 0 1.36 0 0 Z " fill="#000000" transform="translate(42,36)"/>
<path d="M0 0 C1.32 0 2.64 0 4 0 C4 1.32 4 2.64 4 4 C2.68 4 1.36 4 0 4 C0 2.68 0 1.36 0 0 Z " fill="#000000" transform="translate(30,36)"/>
<path d="M0 0 C1.32 0 2.64 0 4 0 C4 1.32 4 2.64 4 4 C2.68 4 1.36 4 0 4 C0 2.68 0 1.36 0 0 Z " fill="#000000" transform="translate(18,36)"/>
<path d="M0 0 C1.32 0 2.64 0 4 0 C4 1.32 4 2.64 4 4 C2.68 4 1.36 4 0 4 C0 2.68 0 1.36 0 0 Z " fill="#000000" transform="translate(84,30)"/>
<path d="M0 0 C1.32 0 2.64 0 4 0 C4 1.32 4 2.64 4 4 C2.68 4 1.36 4 0 4 C0 2.68 0 1.36 0 0 Z " fill="#000000" transform="translate(72,30)"/>
<path d="M0 0 C1.32 0 2.64 0 4 0 C4 1.32 4 2.64 4 4 C2.68 4 1.36 4 0 4 C0 2.68 0 1.36 0 0 Z " fill="#000000" transform="translate(60,30)"/>
<path d="M0 0 C1.32 0 2.64 0 4 0 C4 1.32 4 2.64 4 4 C2.68 4 1.36 4 0 4 C0 2.68 0 1.36 0 0 Z " fill="#000000" transform="translate(36,30)"/>
<path d="M0 0 C1.32 0 2.64 0 4 0 C4 1.32 4 2.64 4 4 C2.68 4 1.36 4 0 4 C0 2.68 0 1.36 0 0 Z " fill="#000000" transform="translate(24,30)"/>
<path d="M0 0 C1.32 0 2.64 0 4 0 C4 1.32 4 2.64 4 4 C2.68 4 1.36 4 0 4 C0 2.68 0 1.36 0 0 Z " fill="#000000" transform="translate(12,30)"/>
<path d="M0 0 C1.32 0 2.64 0 4 0 C4 1.32 4 2.64 4 4 C2.68 4 1.36 4 0 4 C0 2.68 0 1.36 0 0 Z " fill="#000000" transform="translate(55,25)"/>
<path d="M0 0 C1.32 0 2.64 0 4 0 C4 1.32 4 2.64 4 4 C2.68 4 1.36 4 0 4 C0 2.68 0 1.36 0 0 Z " fill="#000000" transform="translate(78,24)"/>
<path d="M0 0 C1.32 0 2.64 0 4 0 C4 1.32 4 2.64 4 4 C2.68 4 1.36 4 0 4 C0 2.68 0 1.36 0 0 Z " fill="#000000" transform="translate(66,24)"/>
<path d="M0 0 C1.32 0 2.64 0 4 0 C4 1.32 4 2.64 4 4 C2.68 4 1.36 4 0 4 C0 2.68 0 1.36 0 0 Z " fill="#000000" transform="translate(30,24)"/>
<path d="M0 0 C1.32 0 2.64 0 4 0 C4 1.32 4 2.64 4 4 C2.68 4 1.36 4 0 4 C0 2.68 0 1.36 0 0 Z " fill="#000000" transform="translate(18,24)"/>
</svg>
