<svg xmlns="http://www.w3.org/2000/svg" xmlns:xlink="http://www.w3.org/1999/xlink" width="500" zoomAndPan="magnify" viewBox="0 0 375 374.999991" height="500" preserveAspectRatio="xMidYMid meet" version="1.2"><defs><clipPath id="4e9d724d6d"><path d="M 112.5 123.46875 L 262.5 123.46875 L 262.5 251.71875 L 112.5 251.71875 Z M 112.5 123.46875 "/></clipPath></defs><g id="b2bdbf4ccf"><g clip-rule="nonzero" clip-path="url(#4e9d724d6d)"><path style=" stroke:none;fill-rule:nonzero;fill:#000000;fill-opacity:1;" d="M 187.507812 251.65625 C 187.117188 251.65625 186.746094 251.5625 186.402344 251.382812 C 186.21875 251.285156 167.804688 241.449219 149.660156 226.070312 C 138.949219 216.992188 130.402344 207.773438 124.253906 198.675781 C 116.457031 187.117188 112.5 175.691406 112.5 164.695312 C 112.5 142 130.941406 123.53125 153.605469 123.53125 C 155.265625 123.535156 156.925781 123.636719 158.574219 123.835938 C 160.226562 124.039062 161.859375 124.339844 163.472656 124.742188 C 165.085938 125.140625 166.671875 125.636719 168.226562 126.230469 C 169.777344 126.824219 171.292969 127.507812 172.761719 128.285156 C 174.234375 129.0625 175.652344 129.925781 177.019531 130.871094 C 178.386719 131.820312 179.691406 132.847656 180.933594 133.957031 C 182.175781 135.0625 183.347656 136.242188 184.445312 137.492188 C 185.546875 138.742188 186.566406 140.050781 187.507812 141.425781 C 188.445312 140.050781 189.464844 138.738281 190.566406 137.488281 C 191.664062 136.238281 192.835938 135.0625 194.078125 133.953125 C 195.320312 132.84375 196.625 131.816406 197.992188 130.867188 C 199.359375 129.917969 200.777344 129.054688 202.246094 128.277344 C 203.71875 127.5 205.230469 126.816406 206.785156 126.222656 C 208.339844 125.628906 209.925781 125.132812 211.539062 124.730469 C 213.152344 124.328125 214.785156 124.027344 216.4375 123.824219 C 218.085938 123.625 219.746094 123.519531 221.40625 123.519531 C 244.074219 123.519531 262.511719 141.984375 262.511719 164.679688 C 262.511719 175.980469 258.5625 187.585938 250.761719 199.238281 C 244.609375 208.40625 236.058594 217.613281 225.34375 226.59375 C 207.1875 241.804688 188.765625 251.300781 188.578125 251.398438 C 188.242188 251.570312 187.882812 251.65625 187.507812 251.65625 Z M 153.605469 128.230469 C 152.414062 128.230469 151.222656 128.292969 150.039062 128.410156 C 148.851562 128.527344 147.675781 128.703125 146.507812 128.9375 C 145.339844 129.171875 144.183594 129.460938 143.042969 129.808594 C 141.90625 130.15625 140.785156 130.558594 139.683594 131.015625 C 138.582031 131.472656 137.507812 131.984375 136.457031 132.546875 C 135.40625 133.109375 134.386719 133.722656 133.394531 134.386719 C 132.40625 135.050781 131.449219 135.761719 130.527344 136.515625 C 129.605469 137.273438 128.726562 138.074219 127.882812 138.917969 C 127.039062 139.761719 126.242188 140.644531 125.484375 141.570312 C 124.730469 142.492188 124.019531 143.449219 123.359375 144.441406 C 122.695312 145.433594 122.082031 146.453125 121.523438 147.507812 C 120.960938 148.558594 120.449219 149.636719 119.992188 150.738281 C 119.539062 151.839844 119.136719 152.964844 118.789062 154.105469 C 118.441406 155.246094 118.152344 156.402344 117.921875 157.574219 C 117.6875 158.742188 117.511719 159.921875 117.394531 161.109375 C 117.277344 162.296875 117.21875 163.488281 117.214844 164.679688 C 117.214844 187.558594 136.480469 208.703125 152.640625 222.410156 C 167.902344 235.359375 183.363281 244.292969 187.539062 246.613281 C 191.710938 244.363281 207.152344 235.699219 222.402344 222.90625 C 238.554688 209.351562 257.8125 188.246094 257.8125 164.679688 C 257.8125 163.679688 257.773438 162.679688 257.6875 161.683594 C 257.605469 160.683594 257.484375 159.691406 257.320312 158.703125 C 257.15625 157.714844 256.953125 156.738281 256.707031 155.765625 C 256.464844 154.792969 256.179688 153.835938 255.855469 152.886719 C 255.53125 151.941406 255.171875 151.007812 254.769531 150.089844 C 254.371094 149.171875 253.933594 148.273438 253.457031 147.390625 C 252.984375 146.507812 252.476562 145.648438 251.929688 144.808594 C 251.382812 143.96875 250.804688 143.15625 250.195312 142.363281 C 249.582031 141.570312 248.9375 140.804688 248.261719 140.066406 C 247.585938 139.328125 246.882812 138.621094 246.148438 137.941406 C 245.414062 137.257812 244.65625 136.609375 243.867188 135.992188 C 243.082031 135.375 242.269531 134.792969 241.433594 134.242188 C 240.597656 133.691406 239.742188 133.175781 238.863281 132.695312 C 237.988281 132.214844 237.089844 131.773438 236.175781 131.367188 C 235.261719 130.960938 234.335938 130.59375 233.390625 130.261719 C 232.445312 129.933594 231.488281 129.644531 230.519531 129.394531 C 229.554688 129.144531 228.574219 128.933594 227.589844 128.765625 C 226.605469 128.59375 225.613281 128.464844 224.617188 128.378906 C 223.621094 128.292969 222.625 128.246094 221.625 128.238281 C 220.625 128.234375 219.625 128.269531 218.628906 128.347656 C 217.632812 128.425781 216.640625 128.542969 215.652344 128.699219 C 214.664062 128.859375 213.6875 129.058594 212.714844 129.300781 C 211.746094 129.539062 210.785156 129.820312 209.839844 130.136719 C 208.890625 130.457031 207.957031 130.8125 207.039062 131.210938 C 206.121094 131.605469 205.21875 132.039062 204.335938 132.511719 C 203.453125 132.980469 202.59375 133.488281 201.753906 134.027344 C 200.910156 134.570312 200.09375 135.144531 199.300781 135.753906 C 198.507812 136.363281 197.738281 137.003906 197 137.675781 C 196.257812 138.347656 195.546875 139.050781 194.863281 139.78125 C 194.179688 140.511719 193.527344 141.269531 192.90625 142.054688 C 192.285156 142.839844 191.699219 143.652344 191.144531 144.484375 C 190.589844 145.316406 190.070312 146.171875 189.585938 147.050781 C 189.378906 147.425781 189.09375 147.722656 188.722656 147.941406 C 188.351562 148.160156 187.953125 148.269531 187.523438 148.269531 C 187.097656 148.269531 186.695312 148.160156 186.328125 147.941406 C 185.957031 147.722656 185.667969 147.425781 185.460938 147.050781 C 184.679688 145.632812 183.804688 144.273438 182.839844 142.96875 C 181.875 141.667969 180.828125 140.4375 179.699219 139.277344 C 178.570312 138.113281 177.367188 137.035156 176.09375 136.03125 C 174.820312 135.03125 173.488281 134.121094 172.09375 133.296875 C 170.699219 132.472656 169.257812 131.746094 167.765625 131.117188 C 166.273438 130.484375 164.75 129.957031 163.1875 129.53125 C 161.625 129.101562 160.042969 128.78125 158.4375 128.566406 C 156.835938 128.351562 155.222656 128.242188 153.605469 128.242188 Z M 153.605469 128.230469 "/></g></g></svg>