<?xml version="1.0" encoding="UTF-8"?>
<svg version="1.1" xmlns="http://www.w3.org/2000/svg" width="100" height="100">
<path d="M0 0 C10.06866931 7.25087772 17.72756886 16.79280068 20.3125 29.25 C21.70668558 45.91292143 19.18676434 58.15716957 8.640625 71.33984375 C2.22382219 78.48333577 -8.09918475 84.61508614 -17.80297852 85.42700195 C-34.86566428 85.88895149 -46.79126814 83.44661518 -59.8125 71.75 C-70.07212814 61.14084545 -72.17133125 48.37416494 -71.96484375 34.2578125 C-71.50503107 21.94581333 -64.87448062 11.59167312 -56.171875 3.17578125 C-39.79726859 -9.51711334 -17.57628553 -10.86641977 0 0 Z M-45.6875 29.25 C-47.46438165 32.8037633 -47.30467741 36.37751429 -46.6875 40.25 C-43.51896496 47.40943795 -37.6799598 52.43424139 -31.6875 57.25 C-31.04039063 57.84039062 -30.39328125 58.43078125 -29.7265625 59.0390625 C-27.74179012 60.45766001 -27.74179012 60.45766001 -25.30859375 60.21875 C-17.52418191 57.34164995 -9.81608155 49.52215032 -5.62109375 42.4765625 C-4.0160273 38.64857975 -3.65113161 35.28200258 -4.6875 31.25 C-6.43731415 28.19263242 -8.48528007 25.85110997 -11.6875 24.25 C-17.56203193 23.70082123 -17.56203193 23.70082123 -22.6875 26.25 C-23.3475 26.91 -24.0075 27.57 -24.6875 28.25 C-27.18111571 27.04618552 -29.36893083 25.79571278 -31.6875 24.25 C-38.41290749 23.47823193 -40.97574769 24.4233269 -45.6875 29.25 Z " fill="#000000" transform="translate(75.6875,10.75)"/>
</svg>
