<?xml version="1.0" encoding="UTF-8"?>
<svg version="1.1" xmlns="http://www.w3.org/2000/svg" width="100" height="100">
<path d="M0 0 C8.33786101 4.97183564 13.54667562 11.86501126 16.109375 21.2578125 C18.50195848 48.41085297 4.1723235 71.34335928 -12.4921875 91.59765625 C-12.95367187 92.14550781 -13.41515625 92.69335938 -13.890625 93.2578125 C-16.95220199 92.93581906 -18.53119097 92.59313815 -20.8125 90.46484375 C-36.17944665 70.33677046 -50.8875106 47.59953661 -47.890625 21.2578125 C-45.98135004 12.67680146 -41.18863639 6.23637341 -33.890625 1.4453125 C-24.13209154 -4.51145897 -10.31095059 -4.94787226 0 0 Z M-25.890625 25.2578125 C-27.50492423 28.48641097 -27.48633157 31.76774903 -26.890625 35.2578125 C-25.15460395 38.28289395 -23.05482363 40.67571319 -19.890625 42.2578125 C-14.76692102 42.86510095 -14.76692102 42.86510095 -10.06640625 41.2109375 C-6.26309756 38.07988435 -5.00399133 36.39147582 -4.515625 31.5078125 C-4.54003725 28.15723182 -5.13461146 26.40886718 -7.265625 23.8203125 C-10.7954836 20.37449815 -12.8189902 19.86225414 -17.78515625 19.8984375 C-21.50655953 20.53363064 -23.29375349 22.59760266 -25.890625 25.2578125 Z " fill="#000000" transform="translate(65.890625,4.7421875)"/>
</svg>
