<?xml version="1.0" encoding="UTF-8"?>
<svg version="1.1" xmlns="http://www.w3.org/2000/svg" width="100" height="100">
<path d="M0 0 C8.33786101 4.97183564 13.54667562 11.86501126 16.109375 21.2578125 C18.44517307 47.76640453 4.80756097 70.80683417 -11.6796875 90.63671875 C-12.40929688 91.50167969 -13.13890625 92.36664063 -13.890625 93.2578125 C-16.95220199 92.93581906 -18.53119097 92.59313815 -20.8125 90.46484375 C-36.17944665 70.33677046 -50.8875106 47.59953661 -47.890625 21.2578125 C-45.98135004 12.67680146 -41.18863639 6.23637341 -33.890625 1.4453125 C-24.13209154 -4.51145897 -10.31095059 -4.94787226 0 0 Z M-36.828125 11.1328125 C-43.40558475 19.52527883 -43.81214131 26.69744742 -42.890625 37.2578125 C-39.51095472 55.21895327 -28.21015217 72.32344015 -16.890625 86.2578125 C-13.68655808 84.89698216 -12.09016396 83.56812053 -10.15625 80.6875 C-9.66833984 79.96393311 -9.18042969 79.24036621 -8.67773438 78.49487305 C-8.17048828 77.71539307 -7.66324219 76.93591309 -7.140625 76.1328125 C-6.61275391 75.3281958 -6.08488281 74.5235791 -5.54101562 73.69458008 C4.48765563 58.13700831 13.5048999 41.35841371 11.109375 22.2578125 C8.53246113 13.36330332 2.6455218 8.07022352 -5.015625 3.3203125 C-16.61411754 -0.89973398 -28.61296197 2.33574209 -36.828125 11.1328125 Z " fill="#000000" transform="translate(65.890625,4.7421875)"/>
<path d="M0 0 C3.41815988 3.01602343 5.76612309 5.64561314 6.51171875 10.27734375 C6.75911612 15.95042133 6.05233098 19.5230927 2.125 23.875 C-1.71282566 27.26131676 -5.50871494 27.38449328 -10.4375 27.23046875 C-14.86366555 26.58498627 -17.55953285 24.3137922 -20.5 21.09765625 C-23.17840329 16.7680782 -22.67838111 11.75904704 -21.875 6.875 C-17.37640955 -1.4714414 -8.62932 -3.37669043 0 0 Z M-16.875 8.875 C-17.57347125 11.7146864 -17.57347125 14.0353136 -16.875 16.875 C-14.88578114 19.8588283 -13.48997432 21.47776841 -9.9375 22.3515625 C-6.01436508 22.63390933 -4.20387629 22.09425086 -0.875 19.875 C1.34425086 16.54612371 1.88390933 14.73563492 1.6015625 10.8125 C0.72776841 7.26002568 -0.8911717 5.86421886 -3.875 3.875 C-9.69163203 2.44429615 -13.48314906 3.78722359 -16.875 8.875 Z " fill="#000000" transform="translate(57.875,23.125)"/>
</svg>
