<?xml version="1.0" encoding="UTF-8"?>
<svg version="1.1" xmlns="http://www.w3.org/2000/svg" width="52" height="52">
<path d="M0 0 C5 1 5 1 8.3125 2.625 C12.89481699 4.33366057 15.26773258 3.91324459 20 3 C19.01 5.31 18.02 7.62 17 10 C11.2237182 10.34657691 9.53485905 9.76742952 4 7 C4.33 12.28 4.66 17.56 5 23 C7.31 23.66 9.62 24.32 12 25 C14.29296875 26.3671875 14.29296875 26.3671875 16.1875 27.875 C17.19490234 28.66390625 17.19490234 28.66390625 18.22265625 29.46875 C20 31 20 31 22.125 33.375 C24.73913282 35.64058178 26.61773711 35.06902577 30 35 C34.82385781 36.83766012 36.26173297 39.8824577 38.30078125 44.35546875 C38.64689453 45.16951172 38.64689453 45.16951172 39 46 C43.07964281 44.69844994 43.07964281 44.69844994 47 43 C47 31.45 47 19.9 47 8 C45.35 8.66 43.7 9.32 42 10 C41.505 7.525 41.505 7.525 41 5 C42.45537568 4.16151196 43.91440373 3.32936066 45.375 2.5 C46.59316406 1.80390625 46.59316406 1.80390625 47.8359375 1.09375 C50 0 50 0 52 0 C52 15.51 52 31.02 52 47 C40.61176471 52.69411765 40.61176471 52.69411765 35 51 C33.824375 50.46375 32.64875 49.9275 31.4375 49.375 C27.54408845 47.81763538 25.96835834 47.81793581 22 49 C21.030625 49.53625 20.06125 50.0725 19.0625 50.625 C15.08773921 52.40958648 13.20644699 52.06943568 9 51 C4.545 49.02 4.545 49.02 0 47 C0 31.49 0 15.98 0 0 Z " fill="#116814" transform="translate(0,0)"/>
<path d="M0 0 C2.8100346 1.79363911 4.50940468 3.01880935 6 6 C6.52073654 11.90412554 5.19132637 15.58932597 2.5625 20.6875 C-0.27301928 26.13752194 -0.27301928 26.13752194 -2 32 C-3.32 32 -4.64 32 -6 32 C-6.32613281 31.13117187 -6.65226562 30.26234375 -6.98828125 29.3671875 C-7.42527344 28.21476562 -7.86226562 27.06234375 -8.3125 25.875 C-8.74175781 24.73804687 -9.17101562 23.60109375 -9.61328125 22.4296875 C-10.94424467 18.9923034 -10.94424467 18.9923034 -12.640625 15.79296875 C-14.37362848 12.23234379 -14.49846635 9.9165213 -14 6 C-10.26747896 0.27680107 -6.74763808 -0.96948823 0 0 Z M-6.625 7.5 C-7.07875 7.995 -7.5325 8.49 -8 9 C-7.34 10.32 -6.68 11.64 -6 13 C-4.35 12.67 -2.7 12.34 -1 12 C-0.67 11.01 -0.34 10.02 0 9 C-1.37485532 7.45833358 -1.37485532 7.45833358 -3 6 C-5.12364481 5.77390663 -5.12364481 5.77390663 -6.625 7.5 Z " fill="#116814" transform="translate(34,0)"/>
</svg>
