<?xml version="1.0" encoding="UTF-8"?>
<svg version="1.1" xmlns="http://www.w3.org/2000/svg" width="100" height="100">
<path d="M0 0 C23.76 0 47.52 0 72 0 C72 19.8 72 39.6 72 60 C48.24 60 24.48 60 0 60 C0 40.2 0 20.4 0 0 Z M4 4 C4 11.92 4 19.84 4 28 C10.3169873 23.38721663 10.3169873 23.38721663 15.8125 18.25 C17.85027303 16.10089971 19.49189322 14.67207118 22 13 C26.22980726 13.24774283 28.10518388 14.64655608 30.91796875 17.7109375 C31.61470703 18.46117187 32.31144531 19.21140625 33.02929688 19.984375 C34.09760742 21.16773438 34.09760742 21.16773438 35.1875 22.375 C35.91130859 23.15617187 36.63511719 23.93734375 37.38085938 24.7421875 C40.14516812 27.74564109 42.73208287 30.59812431 45 34 C47.92264591 32.80929241 49.26512535 31.7076823 51.4375 29.3125 C54 27 54 27 56.39453125 27.1015625 C59.55529713 28.19148177 60.99195269 29.61915491 63.25 32.0625 C64.487862 33.3864539 65.73473139 34.70221281 67 36 C67.33 36 67.66 36 68 36 C68 25.44 68 14.88 68 4 C46.88 4 25.76 4 4 4 Z M19.41015625 21.2109375 C18.70826172 21.87867188 18.00636719 22.54640625 17.28320312 23.234375 C16.18395508 24.29398438 16.18395508 24.29398438 15.0625 25.375 C13.61772566 26.75973509 12.17118079 28.14262584 10.72265625 29.5234375 C9.75984741 30.450354 9.75984741 30.450354 8.77758789 31.39599609 C7 33 7 33 4 35 C4 41.93 4 48.86 4 56 C25.12 56 46.24 56 68 56 C69.18669296 44.08056631 69.18669296 44.08056631 65.59375 39.32421875 C64.1068547 37.93002488 64.1068547 37.93002488 62.5 36.6875 C61.97535156 36.22150391 61.45070312 35.75550781 60.91015625 35.27539062 C59.63490972 34.15085505 58.32115722 33.07022314 57 32 C52.35614735 33.82906461 49.38913422 37.5369569 46.06640625 41.09960938 C41.69913152 45.64230096 41.69913152 45.64230096 38 46 C39.19976433 42.91489173 40.50002556 39.94952958 42 37 C41.5560791 36.53102295 41.1121582 36.0620459 40.65478516 35.57885742 C38.64258555 33.45053899 36.6337633 31.31906179 34.625 29.1875 C33.92632812 28.44951172 33.22765625 27.71152344 32.5078125 26.95117188 C31.8375 26.23896484 31.1671875 25.52675781 30.4765625 24.79296875 C29.85861816 24.1383667 29.24067383 23.48376465 28.60400391 22.80932617 C27 21 27 21 25 18 C22.16012545 18 21.43688034 19.26346793 19.41015625 21.2109375 Z " fill="#000000" transform="translate(4,10)"/>
<path d="M0 0 C1.98 0 3.96 0 6 0 C6 19.8 6 39.6 6 60 C-17.76 60 -41.52 60 -66 60 C-66 58.02 -66 56.04 -66 54 C-64.68 54 -63.36 54 -62 54 C-62 54.66 -62 55.32 -62 56 C-40.88 56 -19.76 56 2 56 C2 38.84 2 21.68 2 4 C1.34 4 0.68 4 0 4 C0 2.68 0 1.36 0 0 Z " fill="#000000" transform="translate(90,30)"/>
<path d="M0 0 C1.98 0 3.96 0 6 0 C6 19.8 6 39.6 6 60 C-17.76 60 -41.52 60 -66 60 C-66 58.02 -66 56.04 -66 54 C-64.68 54 -63.36 54 -62 54 C-62 54.66 -62 55.32 -62 56 C-40.88 56 -19.76 56 2 56 C2 38.84 2 21.68 2 4 C1.34 4 0.68 4 0 4 C0 2.68 0 1.36 0 0 Z " fill="#000000" transform="translate(80,20)"/>
<path d="M0 0 C3 0.125 3 0.125 4 1.125 C4.125 4.125 4.125 4.125 4 7.125 C3 8.125 3 8.125 0 8.25 C-3 8.125 -3 8.125 -4 7.125 C-4.125 4.125 -4.125 4.125 -4 1.125 C-3 0.125 -3 0.125 0 0 Z " fill="#000000" transform="translate(60,19.875)"/>
</svg>
