<?xml version="1.0" encoding="UTF-8"?>
<svg version="1.1" xmlns="http://www.w3.org/2000/svg" width="100" height="100">
<path d="M0 0 C10.06866931 7.25087772 17.72756886 16.79280068 20.3125 29.25 C21.70668558 45.91292143 19.18676434 58.15716957 8.640625 71.33984375 C2.22382219 78.48333577 -8.09918475 84.61508614 -17.80297852 85.42700195 C-34.86566428 85.88895149 -46.79126814 83.44661518 -59.8125 71.75 C-70.07212814 61.14084545 -72.17133125 48.37416494 -71.96484375 34.2578125 C-71.50503107 21.94581333 -64.87448062 11.59167312 -56.171875 3.17578125 C-39.79726859 -9.51711334 -17.57628553 -10.86641977 0 0 Z M-59.3046875 14.18359375 C-66.36355646 24.73201658 -67.95675128 35.85266195 -66.6875 48.25 C-64.80559029 55.4652887 -61.30007046 61.45134 -56.6875 67.25 C-52.30971316 66.5816356 -48.46378147 65.02089558 -44.4375 63.25 C-43.80070312 62.97671875 -43.16390625 62.7034375 -42.5078125 62.421875 C-39.37077826 61.19741997 -39.37077826 61.19741997 -36.6875 59.25 C-36.13634394 52.96682091 -37.09397177 48.50914169 -40.6875 43.25 C-41.3475 42.92 -42.0075 42.59 -42.6875 42.25 C-43.76992055 36.94613931 -43.84176636 31.58899106 -43.9375 26.1875 C-43.95893066 25.51517334 -43.98036133 24.84284668 -44.00244141 24.15014648 C-44.03621832 19.0316928 -43.00724357 15.70722157 -40.6875 11.25 C-35.21645968 6.0525117 -30.35186329 5.8453956 -23.0625 5.90234375 C-17.18290617 6.50799636 -12.82816585 8.78968721 -8.9609375 13.234375 C-7.00432009 17.8678371 -7.33384619 22.34035617 -7.4375 27.3125 C-7.44265625 28.30572266 -7.4478125 29.29894531 -7.453125 30.32226562 C-7.54653904 38.99225621 -7.54653904 38.99225621 -8.6875 42.25 C-9.6775 42.745 -9.6775 42.745 -10.6875 43.25 C-14.29952629 48.53621366 -15.13778522 52.94600687 -14.6875 59.25 C-11.36586589 60.94089221 -8.03192259 62.60464173 -4.6875 64.25 C-4.00042969 64.59160156 -3.31335938 64.93320313 -2.60546875 65.28515625 C0.71598946 66.844928 0.71598946 66.844928 4.31640625 67.10546875 C7.11976236 65.90403042 7.87197241 64.31278819 9.375 61.6875 C9.86097656 60.86121094 10.34695312 60.03492188 10.84765625 59.18359375 C14.15298333 52.56412539 15.87609606 46.93751905 15.8125 39.5 C15.80391968 38.32256226 15.80391968 38.32256226 15.79516602 37.12133789 C15.43429284 25.26112555 10.036766 15.62495348 1.5078125 7.5390625 C-8.66771579 -0.77869299 -19.75369028 -3.14576471 -32.58105469 -2.04101562 C-43.13663908 -0.5827105 -52.65381865 6.06081131 -59.3046875 14.18359375 Z M-36.6875 13.25 C-40.08314002 18.40200554 -40.35037259 22.70334837 -39.23046875 28.6953125 C-38.75209735 30.89100282 -38.24062405 33.07207405 -37.6875 35.25 C-38.3475 35.25 -39.0075 35.25 -39.6875 35.25 C-38.81724238 37.7025442 -37.90216997 39.9323692 -36.44140625 42.09375 C-31.9170978 48.96352148 -32.17274761 55.20842382 -32.6875 63.25 C-33.69876953 63.64832031 -33.69876953 63.64832031 -34.73046875 64.0546875 C-38.17457308 65.44688819 -41.58809729 66.90623035 -45 68.375 C-45.64517578 68.65214844 -46.29035156 68.92929688 -46.95507812 69.21484375 C-48.53279005 69.89267554 -50.11017826 70.57126074 -51.6875 71.25 C-44.12690483 77.7088691 -34.70316757 81.53169065 -24.6875 81.25 C-15.0277611 80.34439948 -7.1453123 77.46051269 0.3125 71.25 C-2.29096797 70.10255669 -4.89523205 68.95698532 -7.5 67.8125 C-8.23798828 67.48701172 -8.97597656 67.16152344 -9.73632812 66.82617188 C-10.44853516 66.51357422 -11.16074219 66.20097656 -11.89453125 65.87890625 C-12.5491333 65.59088135 -13.20373535 65.30285645 -13.87817383 65.00610352 C-15.45284587 64.34806016 -17.06844108 63.78968631 -18.6875 63.25 C-19.28036039 53.98820326 -18.8991658 47.96130489 -13.6875 40.25 C-12.98039322 38.60008418 -12.28778404 36.94170958 -11.6875 35.25 C-12.3475 35.25 -13.0075 35.25 -13.6875 35.25 C-13.3575 34.30125 -13.0275 33.3525 -12.6875 32.375 C-11.19416983 27.13767775 -10.62190377 21.17785249 -12.5078125 15.99609375 C-13.64584362 13.88813852 -13.64584362 13.88813852 -16.8125 13.5 C-17.76125 13.4175 -18.71 13.335 -19.6875 13.25 C-20.0175 12.26 -20.3475 11.27 -20.6875 10.25 C-29.32682656 9.50563587 -29.32682656 9.50563587 -36.6875 13.25 Z " fill="#000000" transform="translate(75.6875,10.75)"/>
</svg>
