<?xml version="1.0" encoding="UTF-8"?>
<svg version="1.1" xmlns="http://www.w3.org/2000/svg" width="100" height="100">
<path d="M0 0 C10.06866931 7.25087772 17.72756886 16.79280068 20.3125 29.25 C21.70668558 45.91292143 19.18676434 58.15716957 8.640625 71.33984375 C2.22382219 78.48333577 -8.09918475 84.61508614 -17.80297852 85.42700195 C-34.86566428 85.88895149 -46.79126814 83.44661518 -59.8125 71.75 C-70.07212814 61.14084545 -72.17133125 48.37416494 -71.96484375 34.2578125 C-71.50503107 21.94581333 -64.87448062 11.59167312 -56.171875 3.17578125 C-39.79726859 -9.51711334 -17.57628553 -10.86641977 0 0 Z M-59.3046875 14.18359375 C-66.36355646 24.73201658 -67.95675128 35.85266195 -66.6875 48.25 C-64.80559029 55.4652887 -61.30007046 61.45134 -56.6875 67.25 C-52.30971316 66.5816356 -48.46378147 65.02089558 -44.4375 63.25 C-43.80070312 62.97671875 -43.16390625 62.7034375 -42.5078125 62.421875 C-39.37077826 61.19741997 -39.37077826 61.19741997 -36.6875 59.25 C-35.8422449 52.60870993 -37.46093002 49.26221882 -41.27734375 43.83984375 C-44.19633753 38.47892165 -43.89164798 32.23368917 -43.9375 26.25 C-43.958125 25.57710937 -43.97875 24.90421875 -44 24.2109375 C-44.03972333 19.06676594 -43.02525544 15.7256078 -40.6875 11.25 C-35.01403833 5.99166967 -30.9058129 5.84782783 -23.3203125 5.90234375 C-17.28115359 6.48028476 -12.89768049 8.6342818 -8.984375 13.265625 C-7.04054692 17.73877155 -7.11485676 21.98147549 -7.125 26.8125 C-7.1237915 27.79307373 -7.12258301 28.77364746 -7.12133789 29.78393555 C-7.30088693 37.79076263 -8.75484092 45.31734092 -14.6875 51.25 C-14.75898199 52.60243917 -14.77149454 53.95834367 -14.75 55.3125 C-14.729375 56.611875 -14.70875 57.91125 -14.6875 59.25 C-11.36586589 60.94089221 -8.03192259 62.60464173 -4.6875 64.25 C-4.00042969 64.59160156 -3.31335938 64.93320313 -2.60546875 65.28515625 C0.71598946 66.844928 0.71598946 66.844928 4.31640625 67.10546875 C7.11976236 65.90403042 7.87197241 64.31278819 9.375 61.6875 C9.86097656 60.86121094 10.34695312 60.03492188 10.84765625 59.18359375 C14.15298333 52.56412539 15.87609606 46.93751905 15.8125 39.5 C15.80391968 38.32256226 15.80391968 38.32256226 15.79516602 37.12133789 C15.43429284 25.26112555 10.036766 15.62495348 1.5078125 7.5390625 C-8.66771579 -0.77869299 -19.75369028 -3.14576471 -32.58105469 -2.04101562 C-43.13663908 -0.5827105 -52.65381865 6.06081131 -59.3046875 14.18359375 Z " fill="#000000" transform="translate(75.6875,10.75)"/>
</svg>
