<?xml version="1.0" encoding="UTF-8"?>
<svg version="1.1" xmlns="http://www.w3.org/2000/svg" width="100" height="100">
<path d="M0 0 C10.06866931 7.25087772 17.72756886 16.79280068 20.3125 29.25 C21.70668558 45.91292143 19.18676434 58.15716957 8.640625 71.33984375 C2.22382219 78.48333577 -8.09918475 84.61508614 -17.80297852 85.42700195 C-34.86566428 85.88895149 -46.79126814 83.44661518 -59.8125 71.75 C-70.07212814 61.14084545 -72.17133125 48.37416494 -71.96484375 34.2578125 C-71.50503107 21.94581333 -64.87448062 11.59167312 -56.171875 3.17578125 C-39.79726859 -9.51711334 -17.57628553 -10.86641977 0 0 Z M-57.9375 12.625 C-66.04211824 22.60160886 -67.65022919 33.57627254 -66.93017578 46.046875 C-65.7680343 56.59734256 -58.8074412 66.27301795 -50.75390625 72.8671875 C-40.19325554 79.9342392 -29.09466164 81.49851941 -16.6875 80.25 C-6.29832204 77.61580406 3.31461082 71.21294739 9.3125 62.25 C15.20083676 50.90301592 17.60234696 39.28107745 14.40625 26.67578125 C9.43954763 14.2431064 1.58090855 6.03887912 -10.35546875 0.23046875 C-27.13909113 -6.8259621 -46.16532181 -0.25997115 -57.9375 12.625 Z " fill="#000000" transform="translate(75.6875,10.75)"/>
<path d="M0 0 C15.84 0 31.68 0 48 0 C48 13.03514596 46.61736787 23.97784447 37.3828125 33.703125 C32.19225342 38.1964448 27.61475725 38.35709317 21.0078125 38.26953125 C15.802204 37.80305464 12.90543906 36.04384868 9.38671875 32.26953125 C1.21692576 22.11303922 0 13.12092822 0 0 Z M5 4 C6.13610696 16.49717653 8.17275415 23.47714194 17 32 C20.80514396 33.90257198 24.87459881 33.72375459 29 33 C35.82460804 29.19307579 39.31672856 23.13688008 41.6796875 15.92578125 C42.84704265 11.72810005 43 8.44348058 43 4 C30.46 4 17.92 4 5 4 Z " fill="#000000" transform="translate(26,46)"/>
<path d="M0 0 C2.83203142 1.37124051 3.89549907 2.50782784 6 5 C6.375 7.8125 6.375 7.8125 6 10 C3.625 9.6875 3.625 9.6875 1 9 C0.34 8.01 -0.32 7.02 -1 6 C-3.99953938 5.66671785 -6.11058939 5.43403297 -9 6 C-10.77409808 7.92022703 -10.77409808 7.92022703 -12 10 C-13.32 10 -14.64 10 -16 10 C-16.375 7.8125 -16.375 7.8125 -16 5 C-11.47330452 -0.36056043 -6.85701332 -1.38693635 0 0 Z " fill="#000000" transform="translate(72,26)"/>
<path d="M0 0 C2.83203142 1.37124051 3.89549907 2.50782784 6 5 C6.375 7.8125 6.375 7.8125 6 10 C3.625 9.6875 3.625 9.6875 1 9 C0.34 8.01 -0.32 7.02 -1 6 C-3.99953938 5.66671785 -6.11058939 5.43403297 -9 6 C-10.77409808 7.92022703 -10.77409808 7.92022703 -12 10 C-13.32 10 -14.64 10 -16 10 C-16.375 7.8125 -16.375 7.8125 -16 5 C-11.47330452 -0.36056043 -6.85701332 -1.38693635 0 0 Z " fill="#000000" transform="translate(38,26)"/>
</svg>
